# xmcd CD Database Entry
#
# Track frame offsets:
# 150
# 12893
# 25825
# 36645
# 49231
# 68384
# 85163
# 98530
# 112010
# 129478
# 143999
# 155789
# 167048
#
# Disc length: 2404 seconds
#
# Revision: 3
# Processed by: cddbd v1.5.2PL0 Copyright (c) Steve Scherf et al.
# Submitted via: RSJCDWriter_freedb_lib_OS/2 1.03
#
DISCID=aa09620d
DTITLE=Candye Kane - Guitar'd And Feathered
DYEAR=2007
DGENRE=blues
TTITLE0=My Country Man
TTITLE1=Back With My Old Friends
TTITLE2=When I Put The Blues on You
TTITLE3=I'm Not Gonna Cry Today
TTITLE4=I Done Got Over It
TTITLE5=Goodbye My Heart
TTITLE6=I'm My Own Worst Enemy
TTITLE7=Fine Brown Frame
TTITLE8=I'm Lucky
TTITLE9=Jesus And Mohammed
TTITLE10=Club Of The Foolish Hearts
TTITLE11=Were Long Ago And Far Away
TTITLE12=Crazy Little Thing
EXTD=YEAR: 2007\n
EXTT0=
EXTT1=
EXTT2=
EXTT3=
EXTT4=
EXTT5=
EXTT6=
EXTT7=
EXTT8=
EXTT9=
EXTT10=
EXTT11=
EXTT12=
PLAYORDER=
